<mxfile host="Electron" modified="2024-05-18T19:04:08.937Z" agent="Mozilla/5.0 (Windows NT 10.0; Win64; x64) AppleWebKit/537.36 (KHTML, like Gecko) draw.io/24.1.0 Chrome/120.0.6099.109 Electron/28.1.0 Safari/537.36" etag="MCtwO3sAEsv5B3SHWP-O" version="24.1.0" type="device">
  <diagram name="Sayfa -1" id="8dzgKyKwZL4ntzZUNiMG">
    <mxGraphModel dx="4076" dy="1927" grid="1" gridSize="10" guides="1" tooltips="1" connect="1" arrows="1" fold="1" page="1" pageScale="1" pageWidth="827" pageHeight="1169" math="0" shadow="0">
      <root>
        <mxCell id="0" />
        <mxCell id="1" parent="0" />
        <mxCell id="xXC5auMIEub-TNPqcFPX-44" style="edgeStyle=orthogonalEdgeStyle;rounded=0;orthogonalLoop=1;jettySize=auto;html=1;exitX=1;exitY=0.25;exitDx=0;exitDy=0;entryX=0;entryY=0.25;entryDx=0;entryDy=0;fontFamily=Helvetica;fontSize=12;fontColor=default;" parent="1" source="xXC5auMIEub-TNPqcFPX-1" target="xXC5auMIEub-TNPqcFPX-7" edge="1">
          <mxGeometry relative="1" as="geometry" />
        </mxCell>
        <mxCell id="xXC5auMIEub-TNPqcFPX-45" value="&lt;font style=&quot;font-size: 14px;&quot;&gt;Kullanıcı Bilgileri&lt;/font&gt;" style="edgeLabel;html=1;align=center;verticalAlign=middle;resizable=0;points=[];rounded=1;strokeColor=default;fontFamily=Helvetica;fontSize=12;fontColor=default;fillColor=default;" parent="xXC5auMIEub-TNPqcFPX-44" vertex="1" connectable="0">
          <mxGeometry x="-0.1167" y="1" relative="1" as="geometry">
            <mxPoint x="56" y="-11" as="offset" />
          </mxGeometry>
        </mxCell>
        <mxCell id="xXC5auMIEub-TNPqcFPX-47" style="edgeStyle=orthogonalEdgeStyle;rounded=0;orthogonalLoop=1;jettySize=auto;html=1;entryX=0.75;entryY=0;entryDx=0;entryDy=0;fontFamily=Helvetica;fontSize=12;fontColor=default;exitX=0.75;exitY=1;exitDx=0;exitDy=0;" parent="1" source="xXC5auMIEub-TNPqcFPX-1" target="xXC5auMIEub-TNPqcFPX-8" edge="1">
          <mxGeometry relative="1" as="geometry" />
        </mxCell>
        <mxCell id="xXC5auMIEub-TNPqcFPX-49" value="&lt;font style=&quot;font-size: 14px;&quot;&gt;Kullanıcı Tarifleri&lt;/font&gt;" style="edgeLabel;html=1;align=center;verticalAlign=middle;resizable=0;points=[];rounded=1;strokeColor=default;fontFamily=Helvetica;fontSize=12;fontColor=default;fillColor=default;" parent="xXC5auMIEub-TNPqcFPX-47" vertex="1" connectable="0">
          <mxGeometry x="-0.0037" y="2" relative="1" as="geometry">
            <mxPoint x="58" as="offset" />
          </mxGeometry>
        </mxCell>
        <mxCell id="xXC5auMIEub-TNPqcFPX-54" style="edgeStyle=orthogonalEdgeStyle;rounded=0;orthogonalLoop=1;jettySize=auto;html=1;entryX=1;entryY=0.25;entryDx=0;entryDy=0;fontFamily=Helvetica;fontSize=12;fontColor=default;exitX=0;exitY=0.25;exitDx=0;exitDy=0;" parent="1" source="xXC5auMIEub-TNPqcFPX-1" target="xXC5auMIEub-TNPqcFPX-4" edge="1">
          <mxGeometry relative="1" as="geometry">
            <mxPoint x="-670" y="150" as="sourcePoint" />
            <Array as="points" />
          </mxGeometry>
        </mxCell>
        <mxCell id="xXC5auMIEub-TNPqcFPX-55" value="&lt;font style=&quot;font-size: 14px;&quot;&gt;Kullanıcı Ürün&lt;/font&gt;&lt;div&gt;&lt;font size=&quot;3&quot;&gt;Bilgileri&lt;/font&gt;&lt;/div&gt;" style="edgeLabel;html=1;align=center;verticalAlign=middle;resizable=0;points=[];rounded=1;strokeColor=default;fontFamily=Helvetica;fontSize=12;fontColor=default;fillColor=default;" parent="xXC5auMIEub-TNPqcFPX-54" vertex="1" connectable="0">
          <mxGeometry x="0.1538" y="1" relative="1" as="geometry">
            <mxPoint x="18" y="-1" as="offset" />
          </mxGeometry>
        </mxCell>
        <mxCell id="xXC5auMIEub-TNPqcFPX-66" style="edgeStyle=orthogonalEdgeStyle;rounded=0;orthogonalLoop=1;jettySize=auto;html=1;exitX=1;exitY=0.75;exitDx=0;exitDy=0;fontFamily=Helvetica;fontSize=12;fontColor=default;entryX=0;entryY=0.25;entryDx=0;entryDy=0;" parent="1" source="xXC5auMIEub-TNPqcFPX-1" target="xXC5auMIEub-TNPqcFPX-5" edge="1">
          <mxGeometry relative="1" as="geometry">
            <mxPoint x="-110" y="290" as="targetPoint" />
          </mxGeometry>
        </mxCell>
        <mxCell id="xXC5auMIEub-TNPqcFPX-67" value="&lt;font style=&quot;font-size: 14px;&quot;&gt;Kullanıcı Puan ve Yorumları&lt;/font&gt;" style="edgeLabel;html=1;align=center;verticalAlign=middle;resizable=0;points=[];rounded=1;strokeColor=default;fontFamily=Helvetica;fontSize=12;fontColor=default;fillColor=default;" parent="xXC5auMIEub-TNPqcFPX-66" vertex="1" connectable="0">
          <mxGeometry x="-0.2491" y="-3" relative="1" as="geometry">
            <mxPoint x="35" y="-13" as="offset" />
          </mxGeometry>
        </mxCell>
        <mxCell id="xXC5auMIEub-TNPqcFPX-68" value="" style="edgeLabel;html=1;align=center;verticalAlign=middle;resizable=0;points=[];rounded=1;strokeColor=default;fontFamily=Helvetica;fontSize=12;fontColor=default;fillColor=default;" parent="xXC5auMIEub-TNPqcFPX-66" vertex="1" connectable="0">
          <mxGeometry x="0.0671" y="12" relative="1" as="geometry">
            <mxPoint as="offset" />
          </mxGeometry>
        </mxCell>
        <mxCell id="xXC5auMIEub-TNPqcFPX-1" value="&lt;font style=&quot;font-size: 14px;&quot;&gt;Kullanıcı&lt;/font&gt;" style="rounded=0;whiteSpace=wrap;html=1;fillColor=#f8cecc;strokeColor=#b85450;" parent="1" vertex="1">
          <mxGeometry x="-640" y="200" width="200" height="120" as="geometry" />
        </mxCell>
        <mxCell id="xXC5auMIEub-TNPqcFPX-48" style="edgeStyle=orthogonalEdgeStyle;rounded=0;orthogonalLoop=1;jettySize=auto;html=1;entryX=1;entryY=0.75;entryDx=0;entryDy=0;fontFamily=Helvetica;fontSize=12;fontColor=default;" parent="1" source="xXC5auMIEub-TNPqcFPX-2" target="xXC5auMIEub-TNPqcFPX-8" edge="1">
          <mxGeometry relative="1" as="geometry">
            <Array as="points">
              <mxPoint x="-190" y="700" />
              <mxPoint x="-190" y="700" />
            </Array>
          </mxGeometry>
        </mxCell>
        <mxCell id="xXC5auMIEub-TNPqcFPX-50" value="&lt;span style=&quot;font-size: 14px;&quot;&gt;Yemek Tarif ve&lt;/span&gt;&lt;div&gt;&lt;span style=&quot;font-size: 14px;&quot;&gt;Tüyo Bilgileri&lt;/span&gt;&lt;/div&gt;" style="edgeLabel;html=1;align=center;verticalAlign=middle;resizable=0;points=[];rounded=1;strokeColor=default;fontFamily=Helvetica;fontSize=12;fontColor=default;fillColor=default;" parent="xXC5auMIEub-TNPqcFPX-48" vertex="1" connectable="0">
          <mxGeometry x="-0.1438" y="-2" relative="1" as="geometry">
            <mxPoint x="-6" y="22" as="offset" />
          </mxGeometry>
        </mxCell>
        <mxCell id="xXC5auMIEub-TNPqcFPX-2" value="&lt;font style=&quot;font-size: 14px;&quot;&gt;Şef ve&amp;nbsp;&lt;/font&gt;&lt;span style=&quot;font-size: 14px; background-color: initial;&quot;&gt;Yazarlar&lt;/span&gt;" style="rounded=0;whiteSpace=wrap;html=1;fillColor=#f8cecc;strokeColor=#b85450;" parent="1" vertex="1">
          <mxGeometry x="-100" y="645" width="200" height="120" as="geometry" />
        </mxCell>
        <mxCell id="xXC5auMIEub-TNPqcFPX-128" style="edgeStyle=orthogonalEdgeStyle;rounded=0;orthogonalLoop=1;jettySize=auto;html=1;exitX=0.75;exitY=1;exitDx=0;exitDy=0;entryX=0.75;entryY=0;entryDx=0;entryDy=0;fontFamily=Helvetica;fontSize=12;fontColor=default;" parent="1" source="xXC5auMIEub-TNPqcFPX-3" target="xXC5auMIEub-TNPqcFPX-126" edge="1">
          <mxGeometry relative="1" as="geometry" />
        </mxCell>
        <mxCell id="h7TCNR2tI0ml2jvYE7aG-7" style="edgeStyle=orthogonalEdgeStyle;rounded=0;orthogonalLoop=1;jettySize=auto;html=1;exitX=1;exitY=0.75;exitDx=0;exitDy=0;entryX=0;entryY=0.75;entryDx=0;entryDy=0;" edge="1" parent="1" source="xXC5auMIEub-TNPqcFPX-3" target="xXC5auMIEub-TNPqcFPX-4">
          <mxGeometry relative="1" as="geometry" />
        </mxCell>
        <mxCell id="xXC5auMIEub-TNPqcFPX-3" value="&lt;font style=&quot;font-size: 14px;&quot;&gt;Market Zincirleri&lt;/font&gt;" style="rounded=0;whiteSpace=wrap;html=1;fillColor=#f8cecc;strokeColor=#b85450;" parent="1" vertex="1">
          <mxGeometry x="-1610" y="200" width="200" height="120" as="geometry" />
        </mxCell>
        <mxCell id="xXC5auMIEub-TNPqcFPX-94" style="edgeStyle=orthogonalEdgeStyle;rounded=0;orthogonalLoop=1;jettySize=auto;html=1;exitX=0;exitY=0.25;exitDx=0;exitDy=0;entryX=1;entryY=0.25;entryDx=0;entryDy=0;fontFamily=Helvetica;fontSize=12;fontColor=default;" parent="1" source="xXC5auMIEub-TNPqcFPX-4" target="xXC5auMIEub-TNPqcFPX-3" edge="1">
          <mxGeometry relative="1" as="geometry" />
        </mxCell>
        <mxCell id="xXC5auMIEub-TNPqcFPX-135" style="edgeStyle=orthogonalEdgeStyle;rounded=0;orthogonalLoop=1;jettySize=auto;html=1;exitX=1;exitY=0.75;exitDx=0;exitDy=0;entryX=0;entryY=0.75;entryDx=0;entryDy=0;fontFamily=Helvetica;fontSize=12;fontColor=default;" parent="1" source="xXC5auMIEub-TNPqcFPX-4" target="xXC5auMIEub-TNPqcFPX-1" edge="1">
          <mxGeometry relative="1" as="geometry" />
        </mxCell>
        <mxCell id="h7TCNR2tI0ml2jvYE7aG-5" style="edgeStyle=orthogonalEdgeStyle;rounded=0;orthogonalLoop=1;jettySize=auto;html=1;exitX=0.25;exitY=0;exitDx=0;exitDy=0;entryX=0.25;entryY=1;entryDx=0;entryDy=0;" edge="1" parent="1" source="xXC5auMIEub-TNPqcFPX-4" target="xXC5auMIEub-TNPqcFPX-83">
          <mxGeometry relative="1" as="geometry" />
        </mxCell>
        <mxCell id="xXC5auMIEub-TNPqcFPX-4" value="&lt;p style=&quot;margin: 4px 0px 0px; text-decoration: underline;&quot;&gt;&lt;font style=&quot;font-size: 14px;&quot;&gt;3&lt;/font&gt;&lt;/p&gt;&lt;hr&gt;&lt;p style=&quot;margin: 0px; margin-left: 8px;&quot;&gt;&lt;font size=&quot;3&quot;&gt;Ürün Bilgi&amp;nbsp;&lt;/font&gt;&lt;/p&gt;&lt;p style=&quot;margin: 0px; margin-left: 8px;&quot;&gt;&lt;font size=&quot;3&quot;&gt;Yönetimi&lt;/font&gt;&lt;/p&gt;" style="verticalAlign=middle;align=center;overflow=fill;fontSize=12;fontFamily=Helvetica;html=1;rounded=1;fontStyle=1;strokeWidth=3;fillColor=#dae8fc;strokeColor=#6c8ebf;" parent="1" vertex="1">
          <mxGeometry x="-1120" y="200" width="160" height="120" as="geometry" />
        </mxCell>
        <mxCell id="xXC5auMIEub-TNPqcFPX-103" style="edgeStyle=orthogonalEdgeStyle;rounded=0;orthogonalLoop=1;jettySize=auto;html=1;exitX=0.75;exitY=1;exitDx=0;exitDy=0;entryX=0.25;entryY=0;entryDx=0;entryDy=0;fontFamily=Helvetica;fontSize=12;fontColor=default;" parent="1" source="xXC5auMIEub-TNPqcFPX-5" target="xXC5auMIEub-TNPqcFPX-87" edge="1">
          <mxGeometry relative="1" as="geometry">
            <Array as="points">
              <mxPoint x="40" y="480" />
              <mxPoint x="490" y="480" />
            </Array>
          </mxGeometry>
        </mxCell>
        <mxCell id="xXC5auMIEub-TNPqcFPX-108" style="edgeStyle=orthogonalEdgeStyle;rounded=0;orthogonalLoop=1;jettySize=auto;html=1;exitX=1;exitY=0.25;exitDx=0;exitDy=0;entryX=0;entryY=0.25;entryDx=0;entryDy=0;fontFamily=Helvetica;fontSize=12;fontColor=default;" parent="1" source="xXC5auMIEub-TNPqcFPX-5" target="xXC5auMIEub-TNPqcFPX-80" edge="1">
          <mxGeometry relative="1" as="geometry" />
        </mxCell>
        <mxCell id="xXC5auMIEub-TNPqcFPX-5" value="&lt;p style=&quot;margin: 0px; margin-top: 4px; text-align: center; text-decoration: underline;&quot;&gt;&lt;font style=&quot;font-size: 14px;&quot;&gt;2&lt;/font&gt;&lt;/p&gt;&lt;hr&gt;&lt;p style=&quot;margin: 0px; margin-left: 8px;&quot;&gt;&lt;font size=&quot;3&quot;&gt;Sosyal Ağ&lt;/font&gt;&lt;/p&gt;&lt;p style=&quot;margin: 0px; margin-left: 8px;&quot;&gt;&lt;font size=&quot;3&quot;&gt;Yönetimi&lt;/font&gt;&lt;/p&gt;" style="verticalAlign=middle;align=center;overflow=fill;fontSize=12;fontFamily=Helvetica;html=1;rounded=1;fontStyle=1;strokeWidth=3;fillColor=#dae8fc;strokeColor=#6c8ebf;" parent="1" vertex="1">
          <mxGeometry x="-80" y="260" width="160" height="120" as="geometry" />
        </mxCell>
        <mxCell id="xXC5auMIEub-TNPqcFPX-69" style="edgeStyle=orthogonalEdgeStyle;rounded=0;orthogonalLoop=1;jettySize=auto;html=1;exitX=0.25;exitY=0;exitDx=0;exitDy=0;entryX=0.25;entryY=1;entryDx=0;entryDy=0;fontFamily=Helvetica;fontSize=12;fontColor=default;" parent="1" source="xXC5auMIEub-TNPqcFPX-7" target="xXC5auMIEub-TNPqcFPX-42" edge="1">
          <mxGeometry relative="1" as="geometry" />
        </mxCell>
        <mxCell id="xXC5auMIEub-TNPqcFPX-71" value="&lt;span style=&quot;font-size: 14px;&quot;&gt;Kişiselleştirilmiş&lt;/span&gt;&lt;div&gt;&lt;span style=&quot;font-size: 14px;&quot;&gt;Kullanıcı Profilleri&lt;/span&gt;&lt;/div&gt;" style="edgeLabel;html=1;align=center;verticalAlign=middle;resizable=0;points=[];rounded=1;strokeColor=default;fontFamily=Helvetica;fontSize=12;fontColor=default;fillColor=default;" parent="xXC5auMIEub-TNPqcFPX-69" vertex="1" connectable="0">
          <mxGeometry x="0.149" y="1" relative="1" as="geometry">
            <mxPoint x="-69" y="12" as="offset" />
          </mxGeometry>
        </mxCell>
        <mxCell id="xXC5auMIEub-TNPqcFPX-7" value="&lt;p style=&quot;margin: 4px 0px 0px; text-decoration: underline;&quot;&gt;&lt;strong&gt;&lt;font style=&quot;font-size: 14px;&quot;&gt;1&lt;/font&gt;&lt;/strong&gt;&lt;/p&gt;&lt;hr&gt;&lt;p style=&quot;margin: 0px; margin-left: 8px;&quot;&gt;&lt;font size=&quot;3&quot;&gt;Kullanıcı Profil&lt;/font&gt;&lt;/p&gt;&lt;p style=&quot;margin: 0px; margin-left: 8px;&quot;&gt;&lt;font size=&quot;3&quot;&gt;Yönetimi&lt;/font&gt;&lt;/p&gt;" style="verticalAlign=middle;align=center;overflow=fill;fontSize=12;fontFamily=Helvetica;html=1;rounded=1;fontStyle=1;strokeWidth=3;fillColor=#dae8fc;strokeColor=#6c8ebf;" parent="1" vertex="1">
          <mxGeometry x="-70" y="-30" width="160" height="120" as="geometry" />
        </mxCell>
        <mxCell id="xXC5auMIEub-TNPqcFPX-102" style="edgeStyle=orthogonalEdgeStyle;rounded=0;orthogonalLoop=1;jettySize=auto;html=1;exitX=0;exitY=0.5;exitDx=0;exitDy=0;fontFamily=Helvetica;fontSize=12;fontColor=default;entryX=1;entryY=0.25;entryDx=0;entryDy=0;" parent="1" source="xXC5auMIEub-TNPqcFPX-8" target="xXC5auMIEub-TNPqcFPX-51" edge="1">
          <mxGeometry relative="1" as="geometry">
            <mxPoint x="-1000" y="699.7142857142858" as="targetPoint" />
          </mxGeometry>
        </mxCell>
        <mxCell id="xXC5auMIEub-TNPqcFPX-120" style="edgeStyle=orthogonalEdgeStyle;rounded=0;orthogonalLoop=1;jettySize=auto;html=1;exitX=0.25;exitY=0;exitDx=0;exitDy=0;fontFamily=Helvetica;fontSize=12;fontColor=default;entryX=0.25;entryY=1;entryDx=0;entryDy=0;" parent="1" source="xXC5auMIEub-TNPqcFPX-8" target="xXC5auMIEub-TNPqcFPX-1" edge="1">
          <mxGeometry relative="1" as="geometry">
            <mxPoint x="-549.9999999999995" y="420" as="targetPoint" />
            <Array as="points">
              <mxPoint x="-590" y="610" />
            </Array>
          </mxGeometry>
        </mxCell>
        <mxCell id="xXC5auMIEub-TNPqcFPX-8" value="&lt;p style=&quot;margin: 0px; margin-top: 4px; text-align: center; text-decoration: underline;&quot;&gt;&lt;font style=&quot;font-size: 14px;&quot;&gt;4&lt;/font&gt;&lt;/p&gt;&lt;hr&gt;&lt;p style=&quot;margin: 0px; margin-left: 8px;&quot;&gt;&lt;font size=&quot;3&quot;&gt;Tarif Oluşturma&lt;/font&gt;&lt;/p&gt;&lt;p style=&quot;margin: 0px; margin-left: 8px;&quot;&gt;&lt;font size=&quot;3&quot;&gt;Sistemi&lt;/font&gt;&lt;/p&gt;" style="verticalAlign=middle;align=center;overflow=fill;fontSize=12;fontFamily=Helvetica;html=1;rounded=1;fontStyle=1;strokeWidth=3;fillColor=#dae8fc;strokeColor=#6c8ebf;" parent="1" vertex="1">
          <mxGeometry x="-610" y="610" width="160" height="120" as="geometry" />
        </mxCell>
        <mxCell id="xXC5auMIEub-TNPqcFPX-42" value="&lt;font style=&quot;font-size: 14px;&quot;&gt;Kullanıcı Veritabanı&lt;/font&gt;" style="rounded=1;whiteSpace=wrap;html=1;strokeColor=default;align=center;verticalAlign=middle;fontFamily=Helvetica;fontSize=12;fontColor=default;fillColor=default;arcSize=17;" parent="1" vertex="1">
          <mxGeometry x="-70" y="-190" width="160" height="40" as="geometry" />
        </mxCell>
        <mxCell id="xXC5auMIEub-TNPqcFPX-43" value="&lt;font style=&quot;font-size: 14px;&quot;&gt;D1&lt;/font&gt;" style="rounded=1;whiteSpace=wrap;html=1;strokeColor=default;align=center;verticalAlign=middle;fontFamily=Helvetica;fontSize=12;fontColor=default;fillColor=default;" parent="1" vertex="1">
          <mxGeometry x="-110" y="-190" width="40" height="40" as="geometry" />
        </mxCell>
        <mxCell id="xXC5auMIEub-TNPqcFPX-112" style="edgeStyle=orthogonalEdgeStyle;rounded=0;orthogonalLoop=1;jettySize=auto;html=1;exitX=0.75;exitY=0;exitDx=0;exitDy=0;entryX=0.75;entryY=1;entryDx=0;entryDy=0;fontFamily=Helvetica;fontSize=12;fontColor=default;" parent="1" source="xXC5auMIEub-TNPqcFPX-51" target="xXC5auMIEub-TNPqcFPX-4" edge="1">
          <mxGeometry relative="1" as="geometry" />
        </mxCell>
        <mxCell id="xXC5auMIEub-TNPqcFPX-117" style="edgeStyle=orthogonalEdgeStyle;rounded=0;orthogonalLoop=1;jettySize=auto;html=1;exitX=1;exitY=1;exitDx=0;exitDy=0;entryX=0;entryY=0.75;entryDx=0;entryDy=0;fontFamily=Helvetica;fontSize=12;fontColor=default;" parent="1" source="xXC5auMIEub-TNPqcFPX-51" target="xXC5auMIEub-TNPqcFPX-8" edge="1">
          <mxGeometry relative="1" as="geometry">
            <Array as="points">
              <mxPoint x="-860" y="700" />
              <mxPoint x="-860" y="700" />
            </Array>
          </mxGeometry>
        </mxCell>
        <mxCell id="xXC5auMIEub-TNPqcFPX-51" value="&lt;font style=&quot;font-size: 14px;&quot;&gt;Yemek Tarifi Veritabanı&lt;/font&gt;" style="rounded=1;whiteSpace=wrap;html=1;strokeColor=default;align=center;verticalAlign=middle;fontFamily=Helvetica;fontSize=12;fontColor=default;fillColor=default;arcSize=17;" parent="1" vertex="1">
          <mxGeometry x="-1120" y="660" width="160" height="40" as="geometry" />
        </mxCell>
        <mxCell id="xXC5auMIEub-TNPqcFPX-52" value="&lt;font style=&quot;font-size: 14px;&quot;&gt;D4&lt;/font&gt;" style="rounded=1;whiteSpace=wrap;html=1;strokeColor=default;align=center;verticalAlign=middle;fontFamily=Helvetica;fontSize=12;fontColor=default;fillColor=default;" parent="1" vertex="1">
          <mxGeometry x="-1160" y="660" width="40" height="40" as="geometry" />
        </mxCell>
        <mxCell id="xXC5auMIEub-TNPqcFPX-79" value="&lt;font style=&quot;font-size: 14px;&quot;&gt;Yemek Tarifi Veritabanı&lt;/font&gt;" style="rounded=1;whiteSpace=wrap;html=1;strokeColor=default;align=center;verticalAlign=middle;fontFamily=Helvetica;fontSize=12;fontColor=default;fillColor=default;arcSize=17;" parent="1" vertex="1">
          <mxGeometry x="360" y="280" width="153" height="40" as="geometry" />
        </mxCell>
        <mxCell id="xXC5auMIEub-TNPqcFPX-123" style="edgeStyle=orthogonalEdgeStyle;rounded=0;orthogonalLoop=1;jettySize=auto;html=1;exitX=0;exitY=1;exitDx=0;exitDy=0;entryX=1;entryY=0.5;entryDx=0;entryDy=0;fontFamily=Helvetica;fontSize=12;fontColor=default;" parent="1" source="xXC5auMIEub-TNPqcFPX-80" target="xXC5auMIEub-TNPqcFPX-5" edge="1">
          <mxGeometry relative="1" as="geometry">
            <Array as="points">
              <mxPoint x="260" y="320" />
              <mxPoint x="260" y="320" />
            </Array>
          </mxGeometry>
        </mxCell>
        <mxCell id="xXC5auMIEub-TNPqcFPX-80" value="&lt;font style=&quot;font-size: 14px;&quot;&gt;D4&lt;/font&gt;" style="rounded=1;whiteSpace=wrap;html=1;strokeColor=default;align=center;verticalAlign=middle;fontFamily=Helvetica;fontSize=12;fontColor=default;fillColor=default;" parent="1" vertex="1">
          <mxGeometry x="320" y="280" width="40" height="40" as="geometry" />
        </mxCell>
        <mxCell id="h7TCNR2tI0ml2jvYE7aG-6" style="edgeStyle=orthogonalEdgeStyle;rounded=0;orthogonalLoop=1;jettySize=auto;html=1;exitX=0.75;exitY=1;exitDx=0;exitDy=0;entryX=0.75;entryY=0;entryDx=0;entryDy=0;" edge="1" parent="1" source="xXC5auMIEub-TNPqcFPX-83" target="xXC5auMIEub-TNPqcFPX-4">
          <mxGeometry relative="1" as="geometry" />
        </mxCell>
        <mxCell id="xXC5auMIEub-TNPqcFPX-83" value="&lt;font style=&quot;font-size: 14px;&quot;&gt;Ürün Veritabanı&lt;/font&gt;" style="rounded=1;whiteSpace=wrap;html=1;strokeColor=default;align=center;verticalAlign=middle;fontFamily=Helvetica;fontSize=12;fontColor=default;fillColor=default;arcSize=17;" parent="1" vertex="1">
          <mxGeometry x="-1120" y="40" width="160" height="40" as="geometry" />
        </mxCell>
        <mxCell id="xXC5auMIEub-TNPqcFPX-84" value="&lt;font style=&quot;font-size: 14px;&quot;&gt;D3&lt;/font&gt;" style="rounded=1;whiteSpace=wrap;html=1;strokeColor=default;align=center;verticalAlign=middle;fontFamily=Helvetica;fontSize=12;fontColor=default;fillColor=default;" parent="1" vertex="1">
          <mxGeometry x="-1160" y="40" width="40" height="40" as="geometry" />
        </mxCell>
        <mxCell id="xXC5auMIEub-TNPqcFPX-85" value="&lt;span style=&quot;font-size: 14px;&quot;&gt;Oluşturulan Tarif&amp;nbsp;&lt;/span&gt;&lt;div&gt;&lt;span style=&quot;font-size: 14px;&quot;&gt;ve Bilgiler&lt;/span&gt;&lt;/div&gt;" style="text;html=1;align=center;verticalAlign=middle;resizable=0;points=[];autosize=1;strokeColor=none;fillColor=none;fontFamily=Helvetica;fontSize=12;fontColor=default;" parent="1" vertex="1">
          <mxGeometry x="-870" y="620" width="130" height="50" as="geometry" />
        </mxCell>
        <mxCell id="xXC5auMIEub-TNPqcFPX-87" value="&lt;font style=&quot;font-size: 14px;&quot;&gt;Şef ve Yazar&lt;/font&gt;&lt;div&gt;&lt;font style=&quot;font-size: 14px;&quot;&gt;Veritabanı&lt;/font&gt;&lt;/div&gt;" style="rounded=1;whiteSpace=wrap;html=1;strokeColor=default;align=center;verticalAlign=middle;fontFamily=Helvetica;fontSize=12;fontColor=default;fillColor=default;arcSize=17;" parent="1" vertex="1">
          <mxGeometry x="450" y="710" width="160" height="40" as="geometry" />
        </mxCell>
        <mxCell id="xXC5auMIEub-TNPqcFPX-106" style="edgeStyle=orthogonalEdgeStyle;rounded=0;orthogonalLoop=1;jettySize=auto;html=1;exitX=0;exitY=0.5;exitDx=0;exitDy=0;entryX=1;entryY=0.75;entryDx=0;entryDy=0;fontFamily=Helvetica;fontSize=12;fontColor=default;" parent="1" source="xXC5auMIEub-TNPqcFPX-88" target="xXC5auMIEub-TNPqcFPX-2" edge="1">
          <mxGeometry relative="1" as="geometry">
            <Array as="points">
              <mxPoint x="413" y="735" />
            </Array>
          </mxGeometry>
        </mxCell>
        <mxCell id="xXC5auMIEub-TNPqcFPX-88" value="&lt;font style=&quot;font-size: 14px;&quot;&gt;D2&lt;/font&gt;" style="rounded=1;whiteSpace=wrap;html=1;strokeColor=default;align=center;verticalAlign=middle;fontFamily=Helvetica;fontSize=12;fontColor=default;fillColor=default;" parent="1" vertex="1">
          <mxGeometry x="413" y="710" width="40" height="40" as="geometry" />
        </mxCell>
        <mxCell id="xXC5auMIEub-TNPqcFPX-95" value="Kullanıcı İçin Gereken&lt;div&gt;Ürün Bilgileri&lt;/div&gt;" style="text;html=1;align=center;verticalAlign=middle;resizable=0;points=[];autosize=1;strokeColor=none;fillColor=none;fontFamily=Helvetica;fontSize=12;fontColor=default;" parent="1" vertex="1">
          <mxGeometry x="-1320" y="180" width="140" height="40" as="geometry" />
        </mxCell>
        <mxCell id="xXC5auMIEub-TNPqcFPX-107" value="&lt;span style=&quot;font-size: 14px;&quot;&gt;Şef ile Yazarların&amp;nbsp;&lt;/span&gt;&lt;div&gt;&lt;span style=&quot;font-size: 14px;&quot;&gt;Puan ve Yoruml&lt;/span&gt;&lt;/div&gt;" style="text;html=1;align=center;verticalAlign=middle;resizable=0;points=[];autosize=1;strokeColor=none;fillColor=none;fontFamily=Helvetica;fontSize=12;fontColor=default;" parent="1" vertex="1">
          <mxGeometry x="235" y="435" width="130" height="50" as="geometry" />
        </mxCell>
        <mxCell id="xXC5auMIEub-TNPqcFPX-109" value="&lt;font style=&quot;font-size: 14px;&quot;&gt;Tarif Puan ve Yorumları&lt;/font&gt;" style="text;html=1;align=center;verticalAlign=middle;resizable=0;points=[];autosize=1;strokeColor=none;fillColor=none;fontFamily=Helvetica;fontSize=12;fontColor=default;" parent="1" vertex="1">
          <mxGeometry x="120" y="250" width="170" height="30" as="geometry" />
        </mxCell>
        <mxCell id="xXC5auMIEub-TNPqcFPX-113" value="&lt;font style=&quot;font-size: 14px;&quot;&gt;Tarif Ürün Bilgileri&lt;/font&gt;" style="text;html=1;align=center;verticalAlign=middle;resizable=0;points=[];autosize=1;strokeColor=none;fillColor=none;fontFamily=Helvetica;fontSize=12;fontColor=default;" parent="1" vertex="1">
          <mxGeometry x="-1000" y="470" width="130" height="30" as="geometry" />
        </mxCell>
        <mxCell id="xXC5auMIEub-TNPqcFPX-115" value="Kullanıcı&lt;div&gt;Geribildirimleri&lt;/div&gt;" style="text;html=1;align=center;verticalAlign=middle;resizable=0;points=[];autosize=1;strokeColor=none;fillColor=none;fontFamily=Helvetica;fontSize=12;fontColor=default;" parent="1" vertex="1">
          <mxGeometry x="220" y="690" width="100" height="40" as="geometry" />
        </mxCell>
        <mxCell id="xXC5auMIEub-TNPqcFPX-119" value="Tarif Puanları" style="text;html=1;align=center;verticalAlign=middle;resizable=0;points=[];autosize=1;strokeColor=none;fillColor=none;fontFamily=Helvetica;fontSize=12;fontColor=default;" parent="1" vertex="1">
          <mxGeometry x="-875" y="708" width="90" height="30" as="geometry" />
        </mxCell>
        <mxCell id="xXC5auMIEub-TNPqcFPX-121" value="Kişiselleştirilmiş&lt;div&gt;Yemek Tarifleri&lt;/div&gt;" style="text;html=1;align=center;verticalAlign=middle;resizable=0;points=[];autosize=1;strokeColor=none;fillColor=none;fontFamily=Helvetica;fontSize=12;fontColor=default;" parent="1" vertex="1">
          <mxGeometry x="-710" y="445" width="110" height="40" as="geometry" />
        </mxCell>
        <mxCell id="xXC5auMIEub-TNPqcFPX-124" value="&lt;font style=&quot;font-size: 14px;&quot;&gt;Oluşturulan Kullanıcı&lt;/font&gt;&lt;div&gt;&lt;font size=&quot;3&quot;&gt;Tarifleri&lt;/font&gt;&lt;/div&gt;" style="text;html=1;align=center;verticalAlign=middle;resizable=0;points=[];autosize=1;strokeColor=none;fillColor=none;fontFamily=Helvetica;fontSize=12;fontColor=default;" parent="1" vertex="1">
          <mxGeometry x="140" y="320" width="150" height="50" as="geometry" />
        </mxCell>
        <mxCell id="xXC5auMIEub-TNPqcFPX-125" value="&lt;span style=&quot;font-size: 14px;&quot;&gt;Kişiselleştirilmiş Ürün&lt;/span&gt;&lt;div&gt;&lt;span style=&quot;font-size: 14px;&quot;&gt;Reklamları&lt;/span&gt;&lt;/div&gt;" style="text;html=1;align=center;verticalAlign=middle;resizable=0;points=[];autosize=1;strokeColor=none;fillColor=none;fontFamily=Helvetica;fontSize=12;fontColor=default;" parent="1" vertex="1">
          <mxGeometry x="-1460" y="420" width="160" height="50" as="geometry" />
        </mxCell>
        <mxCell id="xXC5auMIEub-TNPqcFPX-129" style="edgeStyle=orthogonalEdgeStyle;rounded=0;orthogonalLoop=1;jettySize=auto;html=1;exitX=0.25;exitY=0;exitDx=0;exitDy=0;entryX=0.25;entryY=1;entryDx=0;entryDy=0;fontFamily=Helvetica;fontSize=12;fontColor=default;" parent="1" source="xXC5auMIEub-TNPqcFPX-126" target="xXC5auMIEub-TNPqcFPX-3" edge="1">
          <mxGeometry relative="1" as="geometry">
            <Array as="points">
              <mxPoint x="-1560" y="570" />
            </Array>
          </mxGeometry>
        </mxCell>
        <mxCell id="xXC5auMIEub-TNPqcFPX-130" value="&lt;span style=&quot;font-size: 14px;&quot;&gt;Kişiselleştirilmiş&lt;/span&gt;&lt;div&gt;&lt;span style=&quot;font-size: 14px;&quot;&gt;Kullanıcı Profilleri&lt;/span&gt;&lt;/div&gt;" style="edgeLabel;html=1;align=center;verticalAlign=middle;resizable=0;points=[];rounded=1;strokeColor=default;fontFamily=Helvetica;fontSize=12;fontColor=default;fillColor=default;" parent="xXC5auMIEub-TNPqcFPX-129" vertex="1" connectable="0">
          <mxGeometry x="0.0693" y="-4" relative="1" as="geometry">
            <mxPoint x="-64" y="-25" as="offset" />
          </mxGeometry>
        </mxCell>
        <mxCell id="xXC5auMIEub-TNPqcFPX-132" value="" style="edgeLabel;html=1;align=center;verticalAlign=middle;resizable=0;points=[];rounded=1;strokeColor=default;fontFamily=Helvetica;fontSize=12;fontColor=default;fillColor=default;" parent="xXC5auMIEub-TNPqcFPX-129" vertex="1" connectable="0">
          <mxGeometry x="0.0469" y="-13" relative="1" as="geometry">
            <mxPoint as="offset" />
          </mxGeometry>
        </mxCell>
        <mxCell id="xXC5auMIEub-TNPqcFPX-126" value="&lt;font style=&quot;font-size: 14px;&quot;&gt;Kullanıcı Veritabanı&lt;/font&gt;" style="rounded=1;whiteSpace=wrap;html=1;strokeColor=default;align=center;verticalAlign=middle;fontFamily=Helvetica;fontSize=12;fontColor=default;fillColor=default;arcSize=17;" parent="1" vertex="1">
          <mxGeometry x="-1580" y="570" width="160" height="40" as="geometry" />
        </mxCell>
        <mxCell id="xXC5auMIEub-TNPqcFPX-127" value="&lt;font style=&quot;font-size: 14px;&quot;&gt;D1&lt;/font&gt;" style="rounded=1;whiteSpace=wrap;html=1;strokeColor=default;align=center;verticalAlign=middle;fontFamily=Helvetica;fontSize=12;fontColor=default;fillColor=default;" parent="1" vertex="1">
          <mxGeometry x="-1620" y="570" width="40" height="40" as="geometry" />
        </mxCell>
        <mxCell id="xXC5auMIEub-TNPqcFPX-133" style="edgeStyle=orthogonalEdgeStyle;rounded=0;orthogonalLoop=1;jettySize=auto;html=1;exitX=1;exitY=0.5;exitDx=0;exitDy=0;entryX=0.332;entryY=0.993;entryDx=0;entryDy=0;entryPerimeter=0;fontFamily=Helvetica;fontSize=12;fontColor=default;" parent="1" source="xXC5auMIEub-TNPqcFPX-126" target="xXC5auMIEub-TNPqcFPX-4" edge="1">
          <mxGeometry relative="1" as="geometry" />
        </mxCell>
        <mxCell id="xXC5auMIEub-TNPqcFPX-134" value="Kişiselleştirilmiş Profile&lt;div&gt;Uygun Ürünler Bilgileri&lt;/div&gt;" style="text;html=1;align=center;verticalAlign=middle;resizable=0;points=[];autosize=1;strokeColor=none;fillColor=none;fontFamily=Helvetica;fontSize=12;fontColor=default;" parent="1" vertex="1">
          <mxGeometry x="-1365" y="550" width="140" height="40" as="geometry" />
        </mxCell>
        <mxCell id="xXC5auMIEub-TNPqcFPX-136" value="Kişiselleştirilmiş Ürün Önerileri" style="text;html=1;align=center;verticalAlign=middle;resizable=0;points=[];autosize=1;strokeColor=none;fillColor=none;fontFamily=Helvetica;fontSize=12;fontColor=default;" parent="1" vertex="1">
          <mxGeometry x="-905" y="288" width="190" height="30" as="geometry" />
        </mxCell>
        <mxCell id="h7TCNR2tI0ml2jvYE7aG-8" value="Mevcut Ürün&lt;div&gt;Bilgileri&lt;/div&gt;" style="text;html=1;align=center;verticalAlign=middle;resizable=0;points=[];autosize=1;strokeColor=none;fillColor=none;" vertex="1" parent="1">
          <mxGeometry x="-1285" y="248" width="90" height="40" as="geometry" />
        </mxCell>
        <mxCell id="h7TCNR2tI0ml2jvYE7aG-10" value="Mevcut Ürün&lt;div&gt;Bilgileri&lt;/div&gt;" style="text;html=1;align=center;verticalAlign=middle;resizable=0;points=[];autosize=1;strokeColor=none;fillColor=none;" vertex="1" parent="1">
          <mxGeometry x="-1170" y="113" width="90" height="40" as="geometry" />
        </mxCell>
        <mxCell id="h7TCNR2tI0ml2jvYE7aG-11" value="Kullanıcı İçin Gereken&lt;div&gt;Ürün Bilgileri&lt;/div&gt;" style="text;html=1;align=center;verticalAlign=middle;resizable=0;points=[];autosize=1;strokeColor=none;fillColor=none;" vertex="1" parent="1">
          <mxGeometry x="-1005" y="113" width="140" height="40" as="geometry" />
        </mxCell>
      </root>
    </mxGraphModel>
  </diagram>
</mxfile>
